<svg id="Layer_12" data-name="Layer 12" xmlns="http://www.w3.org/2000/svg" xmlns:xlink="http://www.w3.org/1999/xlink" viewBox="0 0 373.55 149.58"><defs><style>.cls-1,.cls-10,.cls-16,.cls-17{fill:none;}.cls-2{fill:url(#radial-gradient);}.cls-3{fill:url(#linear-gradient);}.cls-4{fill:url(#Dark_Grey_Grad);}.cls-5{fill:#939598;}.cls-6{fill:#bdbec0;}.cls-7{fill:#656668;}.cls-8{fill:#6d6e71;opacity:0.37;}.cls-9{fill:#fff;}.cls-10,.cls-9{stroke:#afb1b3;}.cls-10,.cls-16,.cls-17,.cls-9{stroke-miterlimit:10;}.cls-11{fill:#e7e8e9;}.cls-12{clip-path:url(#clip-path);}.cls-13{fill:url(#radial-gradient-2);}.cls-14{fill:#bdb046;}.cls-15{fill:#d0d1d4;}.cls-16{stroke:#a7a9ab;}.cls-17{stroke:#c0c2c2;}.cls-18{opacity:0.5;fill:url(#radial-gradient-3);}</style><radialGradient id="radial-gradient" cx="348.76" cy="378.56" r="123.99" gradientTransform="translate(0 -757.13) scale(1 3)" gradientUnits="userSpaceOnUse"><stop offset="0" stop-color="#575759"/><stop offset="1" stop-color="#424345"/></radialGradient><linearGradient id="linear-gradient" x1="324.76" y1="378.31" x2="468.76" y2="378.31" gradientUnits="userSpaceOnUse"><stop offset="0" stop-color="#a7a9ac"/><stop offset="1" stop-color="#616263"/></linearGradient><radialGradient id="Dark_Grey_Grad" cx="351.76" cy="378.31" r="120.24" gradientTransform="translate(0 -756.63) scale(1 3)" xlink:href="#radial-gradient"/><clipPath id="clip-path" transform="translate(-100.23 -304.21)"><path class="cls-1" d="M298,378.92c0-19.75-10-36.26-23.33-40.46-17.33.87-31.17,18.65-31.17,40.46s13.84,39.59,31.17,40.46C288,415.18,298,398.66,298,378.92Z"/></clipPath><radialGradient id="radial-gradient-2" cx="304" cy="378.5" r="20.01" gradientTransform="translate(-100.23 -190.66) scale(1 0.7)" gradientUnits="userSpaceOnUse"><stop offset="0.9" stop-color="#fffaa6"/><stop offset="0.96" stop-color="#fef8a3"/><stop offset="0.99" stop-color="#faf09b"/><stop offset="1" stop-color="#f7ec96"/></radialGradient><radialGradient id="radial-gradient-3" cx="290" cy="379" r="188.84" gradientUnits="userSpaceOnUse"><stop offset="0.25" stop-color="#f9f1b4"/><stop offset="0.86" stop-color="#fff"/></radialGradient></defs><title>light</title><g id="Layer_13" data-name="Layer 13"><path class="cls-2" d="M334.38,408.13c-8.08,0-14.63-13.35-14.63-29.81s6.55-29.81,14.63-29.81l120.8,8.92c10.27,0,18.6,9.35,18.6,20.87s-8.33,20.87-18.6,20.87Z" transform="translate(-100.23 -304.21)"/><path class="cls-3" d="M338.44,408.13c-7.55,0-13.68-13.35-13.68-29.81s6.12-29.81,13.68-29.81l112.93,8.92c9.6,0,17.39,9.35,17.39,20.87s-7.78,20.87-17.39,20.87Z" transform="translate(-100.23 -304.21)"/><path class="cls-4" d="M469.56,391.53L345,398.72a44.32,44.32,0,0,0,3.45-12.54l125-4.65a23.42,23.42,0,0,0,.25-3.24,22,22,0,0,0-6.11-15.44l-122.43-4.53c-2.68-6-6.55-9.82-10.85-9.82-8.08,0-14.63,13.35-14.63,29.81s6.55,29.81,14.63,29.81a9.31,9.31,0,0,0,6.66-3.27l124.46-9.2A19.66,19.66,0,0,0,469.56,391.53Z" transform="translate(-100.23 -304.21)"/><path class="cls-5" d="M454,357.42l-57.27-4.31,54.61,4.31c9.6,0,17.39,9.35,17.39,20.87s-7.78,20.87-17.39,20.87l-54.61,4.33L454,399.16c10.07,0,18.23-9.35,18.23-20.87S464.1,357.42,454,357.42Z" transform="translate(-100.23 -304.21)"/></g><path class="cls-5" d="M312.66,338.43c-8.13-1.71-35.05-5.1-45-5.1-19.15,0-34.67,20.48-34.67,45.75s15.52,45.75,34.67,45.75c9.95,0,36.55-3.27,45-5.1,2.47-.53,5-1.37,7.33-2,14.33-4.07,25-19.81,25-38.6s-10.68-34.54-25-38.61C317.63,339.81,315.13,339,312.66,338.43Z" transform="translate(-100.23 -304.21)"/><path class="cls-6" d="M312.23,339.16c-8-1.68-34.42-5-44.19-5-18.8,0-34,20.11-34,44.93S249.24,424,268,424c9.77,0,35.89-3.22,44.19-5,2.42-.52,4.89-1.35,7.2-2,14.07-4,24.56-19.45,24.56-37.91s-10.49-33.92-24.57-37.91C317.12,340.51,314.66,339.67,312.23,339.16Z" transform="translate(-100.23 -304.21)"/><path class="cls-7" d="M298,336.77c-0.43,0-4.2-.5-7.63-0.91,16,3.51,28.27,21.56,28.27,43.31s-12.35,40-28.51,43.36c3.44-.42,7.42-0.93,7.87-1,17.06-1.55,30.53-19.94,30.53-42.39S315.06,338.32,298,336.77Z" transform="translate(-100.23 -304.21)"/><path class="cls-8" d="M295,348.38c-4-5.44-1-6.52,1.25-6.87s6.25,1.13,7.75,2.31,7.5,2.81,9.88,2.94a10.09,10.09,0,0,0,6-1.62c1.13-.87,3.45-1.12,6.38.75,12.94,8.25,17.88,28.63,13.13,39.94-2,4.79-7.19,1.5-8.81.63a18.67,18.67,0,0,0-7.68-2c-2.75,0-7.82,2-10.63,3.81-2.54,1.64-4.75,2.14-7.12,1.39s-3.1-3.28-2.32-8.63A46,46,0,0,0,295,348.38Z" transform="translate(-100.23 -304.21)"/><path class="cls-8" d="M293.05,410.81c1.2-2.36,3.21-3,6.34-2.85s5.42,1,9.92,1.17c6.27,0.17,12-2.41,13.82-.36,2.12,2.43-14.82,9.49-17.2,10s-3.55-.56-5.19-0.75c-5.25-.62-13.31,2.38-12.81-0.56C288.35,415,292,412.79,293.05,410.81Z" transform="translate(-100.23 -304.21)"/><g id="reflect"><ellipse class="cls-9" cx="167.77" cy="74.71" rx="33" ry="44.58"/><ellipse class="cls-10" cx="167.77" cy="74.71" rx="30" ry="41.5"/><path class="cls-11" d="M274.67,338.46c-17.33.87-31.17,18.65-31.17,40.46s13.84,39.59,31.17,40.46C288,415.18,298,398.66,298,378.92c0-.72,0-1.43,0-2.14a27.3,27.3,0,0,0-3.46,7C287.25,403,267.78,410.17,262,412.67a32.86,32.86,0,0,1-5-4.42c19.88-6.2,27-11.64,34.25-23.75-7.57,8.81-21.54,17.44-39.52,20.7-14.08-20.87-5.94-43.39-1.67-49.87,12.5,0,25.78,5.07,37.65,10.93-7.13-6.79-20.62-12.88-31.4-15A10,10,0,0,1,260.5,347c12.69,1.52,30.25,16.75,34,22.25,1.29,1,2.21,1.29,2.87,1.19C295,354.58,286.06,342,274.67,338.46Z" transform="translate(-100.23 -304.21)"/></g><g id="bulb"><g class="cls-12"><ellipse class="cls-13" cx="203.77" cy="74.29" rx="25.78" ry="11.69"/><ellipse class="cls-14" cx="203.77" cy="74.29" rx="11.5" ry="8"/></g></g><g id="screw"><path class="cls-15" d="M243.5,378.92c0-21.81,13.84-39.59,31.17-40.46a22.18,22.18,0,0,0-6.67-1c-16.57,0-30,18.58-30,41.5s13.43,41.5,30,41.5a22.18,22.18,0,0,0,6.67-1C257.34,418.5,243.5,400.73,243.5,378.92Z" transform="translate(-100.23 -304.21)"/><path class="cls-16" d="M298,378.92c0-19.75-10-36.26-23.33-40.46-17.33.87-31.17,18.65-31.17,40.46s13.84,39.59,31.17,40.46C288,415.18,298,398.66,298,378.92Z" transform="translate(-100.23 -304.21)"/><path class="cls-17" d="M274.67,419.37C288,415.18,298,398.66,298,378.92s-10-36.26-23.33-40.46" transform="translate(-100.23 -304.21)"/></g><path class="cls-18" d="M268,420.42c-16.57,0-30-18.58-30-41.5s13.43-41.5,30-41.5c0.31,0,.62,0,0.94,0L100.23,304.21V453.79l170.06-33.51A21.48,21.48,0,0,1,268,420.42Z" transform="translate(-100.23 -304.21)"/></svg>